<?xml version="1.0" encoding="UTF-8" standalone="no"?>
<!DOCTYPE svg PUBLIC "-//W3C//DTD SVG 1.1//EN"
 "http://www.w3.org/Graphics/SVG/1.1/DTD/svg11.dtd">
<!-- Generated by graphviz version 2.43.0 (0)
 -->
<!-- Title: Caelum::CaelumSystem Pages: 1 -->
<svg width="292pt" height="84pt"
 viewBox="0.00 0.00 291.50 84.00" xmlns="http://www.w3.org/2000/svg" xmlns:xlink="http://www.w3.org/1999/xlink">
<g id="graph0" class="graph" transform="scale(1 1) rotate(0) translate(4 80)">
<title>Caelum::CaelumSystem</title>
<polygon fill="white" stroke="transparent" points="-4,4 -4,-80 287.5,-80 287.5,4 -4,4"/>
<!-- Node1 -->
<g id="node1" class="node">
<title>Node1</title>
<g id="a_node1"><a xlink:title="This is the &quot;root class&quot; of caelum.">
<polygon fill="#bfbfbf" stroke="black" points="66,-0.5 66,-19.5 200,-19.5 200,-0.5 66,-0.5"/>
<text text-anchor="middle" x="133" y="-7.5" font-family="Helvetica,sans-Serif" font-size="10.00">Caelum::CaelumSystem</text>
</a>
</g>
</g>
<!-- Node2 -->
<g id="node2" class="node">
<title>Node2</title>
<g id="a_node2"><a target="_parent" xlink:href="https://ogrecave.github.io/ogre/api/latest/class_ogre_1_1_frame_listener.html" xlink:title=" ">
<polygon fill="white" stroke="black" points="0,-56.5 0,-75.5 116,-75.5 116,-56.5 0,-56.5"/>
<text text-anchor="middle" x="58" y="-63.5" font-family="Helvetica,sans-Serif" font-size="10.00">Ogre::FrameListener</text>
</a>
</g>
</g>
<!-- Node2&#45;&gt;Node1 -->
<g id="edge1" class="edge">
<title>Node2&#45;&gt;Node1</title>
<path fill="none" stroke="midnightblue" d="M78.31,-50.38C91.86,-40.62 109.24,-28.11 120.73,-19.83"/>
<polygon fill="midnightblue" stroke="midnightblue" points="76.12,-47.64 70.05,-56.32 80.21,-53.32 76.12,-47.64"/>
</g>
<!-- Node3 -->
<g id="node3" class="node">
<title>Node3</title>
<g id="a_node3"><a target="_parent" xlink:href="https://ogrecave.github.io/ogre/api/latest/class_ogre_1_1_render_target_listener.html" xlink:title=" ">
<polygon fill="white" stroke="black" points="134.5,-56.5 134.5,-75.5 283.5,-75.5 283.5,-56.5 134.5,-56.5"/>
<text text-anchor="middle" x="209" y="-63.5" font-family="Helvetica,sans-Serif" font-size="10.00">Ogre::RenderTargetListener</text>
</a>
</g>
</g>
<!-- Node3&#45;&gt;Node1 -->
<g id="edge2" class="edge">
<title>Node3&#45;&gt;Node1</title>
<path fill="none" stroke="midnightblue" d="M188.42,-50.38C174.69,-40.62 157.07,-28.11 145.43,-19.83"/>
<polygon fill="midnightblue" stroke="midnightblue" points="186.61,-53.38 196.79,-56.32 190.66,-47.68 186.61,-53.38"/>
</g>
</g>
</svg>
