<?xml version="1.0" encoding="UTF-8" standalone="no"?>
<!DOCTYPE svg PUBLIC "-//W3C//DTD SVG 1.1//EN"
 "http://www.w3.org/Graphics/SVG/1.1/DTD/svg11.dtd">
<!-- Generated by graphviz version 2.43.0 (0)
 -->
<!-- Title: Caelum::CameraBoundElement Pages: 1 -->
<svg width="494pt" height="218pt"
 viewBox="0.00 0.00 494.00 218.00" xmlns="http://www.w3.org/2000/svg" xmlns:xlink="http://www.w3.org/1999/xlink">
<g id="graph0" class="graph" transform="scale(1 1) rotate(0) translate(4 214)">
<title>Caelum::CameraBoundElement</title>
<polygon fill="white" stroke="transparent" points="-4,4 -4,-214 490,-214 490,4 -4,4"/>
<!-- Node1 -->
<g id="node1" class="node">
<title>Node1</title>
<g id="a_node1"><a xlink:title="A camera&#45;bound element.">
<polygon fill="#bfbfbf" stroke="black" points="0,-76.5 0,-95.5 170,-95.5 170,-76.5 0,-76.5"/>
<text text-anchor="middle" x="85" y="-83.5" font-family="Helvetica,sans-Serif" font-size="10.00">Caelum::CameraBoundElement</text>
</a>
</g>
</g>
<!-- Node2 -->
<g id="node2" class="node">
<title>Node2</title>
<g id="a_node2"><a xlink:href="classCaelum_1_1BaseSkyLight.html" target="_top" xlink:title="Base class for sky lights (sun and moon).">
<polygon fill="white" stroke="black" points="209.5,-152.5 209.5,-171.5 334.5,-171.5 334.5,-152.5 209.5,-152.5"/>
<text text-anchor="middle" x="272" y="-159.5" font-family="Helvetica,sans-Serif" font-size="10.00">Caelum::BaseSkyLight</text>
</a>
</g>
</g>
<!-- Node1&#45;&gt;Node2 -->
<g id="edge1" class="edge">
<title>Node1&#45;&gt;Node2</title>
<path fill="none" stroke="midnightblue" d="M113.08,-100.39C137.05,-112.75 173.23,-130.52 206,-143 215.12,-146.47 225.16,-149.69 234.56,-152.46"/>
<polygon fill="midnightblue" stroke="midnightblue" points="114.39,-97.13 103.9,-95.61 111.16,-103.33 114.39,-97.13"/>
</g>
<!-- Node6 -->
<g id="node6" class="node">
<title>Node6</title>
<g id="a_node6"><a xlink:href="classCaelum_1_1GroundFog.html" target="_top" xlink:title="Exponential ground fog system implementation.">
<polygon fill="white" stroke="black" points="215.5,-114.5 215.5,-133.5 328.5,-133.5 328.5,-114.5 215.5,-114.5"/>
<text text-anchor="middle" x="272" y="-121.5" font-family="Helvetica,sans-Serif" font-size="10.00">Caelum::GroundFog</text>
</a>
</g>
</g>
<!-- Node1&#45;&gt;Node6 -->
<g id="edge5" class="edge">
<title>Node1&#45;&gt;Node6</title>
<path fill="none" stroke="midnightblue" d="M142.52,-97.61C168.83,-103.01 199.74,-109.36 224.65,-114.48"/>
<polygon fill="midnightblue" stroke="midnightblue" points="143.18,-94.17 132.68,-95.59 141.77,-101.03 143.18,-94.17"/>
</g>
<!-- Node7 -->
<g id="node7" class="node">
<title>Node7</title>
<g id="a_node7"><a xlink:href="classCaelum_1_1ImageStarfield.html" target="_top" xlink:title="Image&#45;based starfield class.">
<polygon fill="white" stroke="black" points="206,-76.5 206,-95.5 338,-95.5 338,-76.5 206,-76.5"/>
<text text-anchor="middle" x="272" y="-83.5" font-family="Helvetica,sans-Serif" font-size="10.00">Caelum::ImageStarfield</text>
</a>
</g>
</g>
<!-- Node1&#45;&gt;Node7 -->
<g id="edge6" class="edge">
<title>Node1&#45;&gt;Node7</title>
<path fill="none" stroke="midnightblue" d="M180.28,-86C188.96,-86 197.61,-86 205.94,-86"/>
<polygon fill="midnightblue" stroke="midnightblue" points="180.11,-82.5 170.11,-86 180.11,-89.5 180.11,-82.5"/>
</g>
<!-- Node8 -->
<g id="node8" class="node">
<title>Node8</title>
<g id="a_node8"><a xlink:href="classCaelum_1_1PointStarfield.html" target="_top" xlink:title="Point starfield class.">
<polygon fill="white" stroke="black" points="209,-38.5 209,-57.5 335,-57.5 335,-38.5 209,-38.5"/>
<text text-anchor="middle" x="272" y="-45.5" font-family="Helvetica,sans-Serif" font-size="10.00">Caelum::PointStarfield</text>
</a>
</g>
</g>
<!-- Node1&#45;&gt;Node8 -->
<g id="edge7" class="edge">
<title>Node1&#45;&gt;Node8</title>
<path fill="none" stroke="midnightblue" d="M142.52,-74.39C168.83,-68.99 199.74,-62.64 224.65,-57.52"/>
<polygon fill="midnightblue" stroke="midnightblue" points="141.77,-70.97 132.68,-76.41 143.18,-77.83 141.77,-70.97"/>
</g>
<!-- Node9 -->
<g id="node9" class="node">
<title>Node9</title>
<g id="a_node9"><a xlink:href="classCaelum_1_1SkyDome.html" target="_top" xlink:title="A sky dome element.">
<polygon fill="white" stroke="black" points="218.5,-0.5 218.5,-19.5 325.5,-19.5 325.5,-0.5 218.5,-0.5"/>
<text text-anchor="middle" x="272" y="-7.5" font-family="Helvetica,sans-Serif" font-size="10.00">Caelum::SkyDome</text>
</a>
</g>
</g>
<!-- Node1&#45;&gt;Node9 -->
<g id="edge8" class="edge">
<title>Node1&#45;&gt;Node9</title>
<path fill="none" stroke="midnightblue" d="M113.08,-71.61C137.05,-59.25 173.23,-41.48 206,-29 215.12,-25.53 225.16,-22.31 234.56,-19.54"/>
<polygon fill="midnightblue" stroke="midnightblue" points="111.16,-68.67 103.9,-76.39 114.39,-74.87 111.16,-68.67"/>
</g>
<!-- Node3 -->
<g id="node3" class="node">
<title>Node3</title>
<g id="a_node3"><a xlink:href="classCaelum_1_1Moon.html" target="_top" xlink:title="Class representing the moon.">
<polygon fill="white" stroke="black" points="386.5,-190.5 386.5,-209.5 473.5,-209.5 473.5,-190.5 386.5,-190.5"/>
<text text-anchor="middle" x="430" y="-197.5" font-family="Helvetica,sans-Serif" font-size="10.00">Caelum::Moon</text>
</a>
</g>
</g>
<!-- Node2&#45;&gt;Node3 -->
<g id="edge2" class="edge">
<title>Node2&#45;&gt;Node3</title>
<path fill="none" stroke="midnightblue" d="M322.13,-173.97C343.99,-179.29 369.38,-185.48 389.92,-190.48"/>
<polygon fill="midnightblue" stroke="midnightblue" points="322.91,-170.56 312.37,-171.59 321.25,-177.36 322.91,-170.56"/>
</g>
<!-- Node4 -->
<g id="node4" class="node">
<title>Node4</title>
<g id="a_node4"><a xlink:href="classCaelum_1_1SphereSun.html" target="_top" xlink:title="Class representing the sun as sphere with emissive color on it.">
<polygon fill="white" stroke="black" points="374,-152.5 374,-171.5 486,-171.5 486,-152.5 374,-152.5"/>
<text text-anchor="middle" x="430" y="-159.5" font-family="Helvetica,sans-Serif" font-size="10.00">Caelum::SphereSun</text>
</a>
</g>
</g>
<!-- Node2&#45;&gt;Node4 -->
<g id="edge3" class="edge">
<title>Node2&#45;&gt;Node4</title>
<path fill="none" stroke="midnightblue" d="M344.77,-162C354.54,-162 364.45,-162 373.86,-162"/>
<polygon fill="midnightblue" stroke="midnightblue" points="344.66,-158.5 334.66,-162 344.66,-165.5 344.66,-158.5"/>
</g>
<!-- Node5 -->
<g id="node5" class="node">
<title>Node5</title>
<g id="a_node5"><a xlink:href="classCaelum_1_1SpriteSun.html" target="_top" xlink:title="Class representing the sun as billboard with texture on it.">
<polygon fill="white" stroke="black" points="376.5,-114.5 376.5,-133.5 483.5,-133.5 483.5,-114.5 376.5,-114.5"/>
<text text-anchor="middle" x="430" y="-121.5" font-family="Helvetica,sans-Serif" font-size="10.00">Caelum::SpriteSun</text>
</a>
</g>
</g>
<!-- Node2&#45;&gt;Node5 -->
<g id="edge4" class="edge">
<title>Node2&#45;&gt;Node5</title>
<path fill="none" stroke="midnightblue" d="M322.13,-150.03C343.99,-144.71 369.38,-138.52 389.92,-133.52"/>
<polygon fill="midnightblue" stroke="midnightblue" points="321.25,-146.64 312.37,-152.41 322.91,-153.44 321.25,-146.64"/>
</g>
</g>
</svg>
