<?xml version="1.0" encoding="UTF-8" standalone="no"?>
<!DOCTYPE svg PUBLIC "-//W3C//DTD SVG 1.1//EN"
 "http://www.w3.org/Graphics/SVG/1.1/DTD/svg11.dtd">
<!-- Generated by graphviz version 2.43.0 (0)
 -->
<!-- Title: Caelum::AccesorPropertyDescriptor&lt; TargetT, ParamT, InParamT, OutParamT &gt; Pages: 1 -->
<svg width="198pt" height="173pt"
 viewBox="0.00 0.00 198.00 173.00" xmlns="http://www.w3.org/2000/svg" xmlns:xlink="http://www.w3.org/1999/xlink">
<g id="graph0" class="graph" transform="scale(1 1) rotate(0) translate(4 169)">
<title>Caelum::AccesorPropertyDescriptor&lt; TargetT, ParamT, InParamT, OutParamT &gt;</title>
<polygon fill="white" stroke="transparent" points="-4,4 -4,-169 194,-169 194,4 -4,4"/>
<!-- Node1 -->
<g id="node1" class="node">
<title>Node1</title>
<g id="a_node1"><a xlink:title="ValuePropertyDescriptor implementation based on function pointers to get/set methods.">
<polygon fill="#bfbfbf" stroke="black" points="0,-0.5 0,-41.5 190,-41.5 190,-0.5 0,-0.5"/>
<text text-anchor="start" x="8" y="-29.5" font-family="Helvetica,sans-Serif" font-size="10.00">Caelum::AccesorPropertyDescriptor</text>
<text text-anchor="start" x="8" y="-18.5" font-family="Helvetica,sans-Serif" font-size="10.00">&lt; TargetT, ParamT, InParamT,</text>
<text text-anchor="middle" x="95" y="-7.5" font-family="Helvetica,sans-Serif" font-size="10.00"> OutParamT &gt;</text>
</a>
</g>
</g>
<!-- Node2 -->
<g id="node2" class="node">
<title>Node2</title>
<g id="a_node2"><a xlink:href="classCaelum_1_1TypedValuePropertyDescriptor.html" target="_top" xlink:title=" ">
<polygon fill="white" stroke="black" points="16,-78.5 16,-108.5 174,-108.5 174,-78.5 16,-78.5"/>
<text text-anchor="start" x="24" y="-96.5" font-family="Helvetica,sans-Serif" font-size="10.00">Caelum::TypedValueProperty</text>
<text text-anchor="middle" x="95" y="-85.5" font-family="Helvetica,sans-Serif" font-size="10.00">Descriptor&lt; ParamT &gt;</text>
</a>
</g>
</g>
<!-- Node2&#45;&gt;Node1 -->
<g id="edge1" class="edge">
<title>Node2&#45;&gt;Node1</title>
<path fill="none" stroke="midnightblue" d="M95,-67.98C95,-59.35 95,-49.76 95,-41.59"/>
<polygon fill="midnightblue" stroke="midnightblue" points="91.5,-68.23 95,-78.23 98.5,-68.23 91.5,-68.23"/>
</g>
<!-- Node3 -->
<g id="node3" class="node">
<title>Node3</title>
<g id="a_node3"><a xlink:href="classCaelum_1_1ValuePropertyDescriptor.html" target="_top" xlink:title="Basic property descriptor interface.">
<polygon fill="white" stroke="black" points="5.5,-145.5 5.5,-164.5 184.5,-164.5 184.5,-145.5 5.5,-145.5"/>
<text text-anchor="middle" x="95" y="-152.5" font-family="Helvetica,sans-Serif" font-size="10.00">Caelum::ValuePropertyDescriptor</text>
</a>
</g>
</g>
<!-- Node3&#45;&gt;Node2 -->
<g id="edge2" class="edge">
<title>Node3&#45;&gt;Node2</title>
<path fill="none" stroke="midnightblue" d="M95,-135.23C95,-126.59 95,-116.5 95,-108.52"/>
<polygon fill="midnightblue" stroke="midnightblue" points="91.5,-135.48 95,-145.48 98.5,-135.48 91.5,-135.48"/>
</g>
</g>
</svg>
