<?xml version="1.0" encoding="UTF-8" standalone="no"?>
<!DOCTYPE svg PUBLIC "-//W3C//DTD SVG 1.1//EN"
 "http://www.w3.org/Graphics/SVG/1.1/DTD/svg11.dtd">
<!-- Generated by graphviz version 2.43.0 (0)
 -->
<!-- Title: Caelum::BaseSkyLight Pages: 1 -->
<svg width="351pt" height="140pt"
 viewBox="0.00 0.00 351.00 140.00" xmlns="http://www.w3.org/2000/svg" xmlns:xlink="http://www.w3.org/1999/xlink">
<g id="graph0" class="graph" transform="scale(1 1) rotate(0) translate(4 136)">
<title>Caelum::BaseSkyLight</title>
<polygon fill="white" stroke="transparent" points="-4,4 -4,-136 347,-136 347,4 -4,4"/>
<!-- Node1 -->
<g id="node1" class="node">
<title>Node1</title>
<g id="a_node1"><a xlink:title="Base class for sky lights (sun and moon).">
<polygon fill="#bfbfbf" stroke="black" points="99,-56.5 99,-75.5 224,-75.5 224,-56.5 99,-56.5"/>
<text text-anchor="middle" x="161.5" y="-63.5" font-family="Helvetica,sans-Serif" font-size="10.00">Caelum::BaseSkyLight</text>
</a>
</g>
</g>
<!-- Node3 -->
<g id="node3" class="node">
<title>Node3</title>
<g id="a_node3"><a xlink:href="classCaelum_1_1Moon.html" target="_top" xlink:title="Class representing the moon.">
<polygon fill="white" stroke="black" points="0,-0.5 0,-19.5 87,-19.5 87,-0.5 0,-0.5"/>
<text text-anchor="middle" x="43.5" y="-7.5" font-family="Helvetica,sans-Serif" font-size="10.00">Caelum::Moon</text>
</a>
</g>
</g>
<!-- Node1&#45;&gt;Node3 -->
<g id="edge2" class="edge">
<title>Node1&#45;&gt;Node3</title>
<path fill="none" stroke="midnightblue" d="M133.6,-52.23C111.53,-42.13 81.32,-28.31 62.11,-19.52"/>
<polygon fill="midnightblue" stroke="midnightblue" points="132.25,-55.46 142.8,-56.44 135.17,-49.1 132.25,-55.46"/>
</g>
<!-- Node4 -->
<g id="node4" class="node">
<title>Node4</title>
<g id="a_node4"><a xlink:href="classCaelum_1_1SphereSun.html" target="_top" xlink:title="Class representing the sun as sphere with emissive color on it.">
<polygon fill="white" stroke="black" points="105.5,-0.5 105.5,-19.5 217.5,-19.5 217.5,-0.5 105.5,-0.5"/>
<text text-anchor="middle" x="161.5" y="-7.5" font-family="Helvetica,sans-Serif" font-size="10.00">Caelum::SphereSun</text>
</a>
</g>
</g>
<!-- Node1&#45;&gt;Node4 -->
<g id="edge3" class="edge">
<title>Node1&#45;&gt;Node4</title>
<path fill="none" stroke="midnightblue" d="M161.5,-45.8C161.5,-36.91 161.5,-26.78 161.5,-19.75"/>
<polygon fill="midnightblue" stroke="midnightblue" points="158,-46.08 161.5,-56.08 165,-46.08 158,-46.08"/>
</g>
<!-- Node5 -->
<g id="node5" class="node">
<title>Node5</title>
<g id="a_node5"><a xlink:href="classCaelum_1_1SpriteSun.html" target="_top" xlink:title="Class representing the sun as billboard with texture on it.">
<polygon fill="white" stroke="black" points="236,-0.5 236,-19.5 343,-19.5 343,-0.5 236,-0.5"/>
<text text-anchor="middle" x="289.5" y="-7.5" font-family="Helvetica,sans-Serif" font-size="10.00">Caelum::SpriteSun</text>
</a>
</g>
</g>
<!-- Node1&#45;&gt;Node5 -->
<g id="edge4" class="edge">
<title>Node1&#45;&gt;Node5</title>
<path fill="none" stroke="midnightblue" d="M191.12,-52.5C215.12,-42.38 248.28,-28.39 269.31,-19.52"/>
<polygon fill="midnightblue" stroke="midnightblue" points="189.64,-49.33 181.78,-56.44 192.36,-55.78 189.64,-49.33"/>
</g>
<!-- Node2 -->
<g id="node2" class="node">
<title>Node2</title>
<g id="a_node2"><a xlink:href="classCaelum_1_1CameraBoundElement.html" target="_top" xlink:title="A camera&#45;bound element.">
<polygon fill="white" stroke="black" points="76.5,-112.5 76.5,-131.5 246.5,-131.5 246.5,-112.5 76.5,-112.5"/>
<text text-anchor="middle" x="161.5" y="-119.5" font-family="Helvetica,sans-Serif" font-size="10.00">Caelum::CameraBoundElement</text>
</a>
</g>
</g>
<!-- Node2&#45;&gt;Node1 -->
<g id="edge1" class="edge">
<title>Node2&#45;&gt;Node1</title>
<path fill="none" stroke="midnightblue" d="M161.5,-101.8C161.5,-92.91 161.5,-82.78 161.5,-75.75"/>
<polygon fill="midnightblue" stroke="midnightblue" points="158,-102.08 161.5,-112.08 165,-102.08 158,-102.08"/>
</g>
</g>
</svg>
