<?xml version="1.0" encoding="UTF-8" standalone="no"?>
<!DOCTYPE svg PUBLIC "-//W3C//DTD SVG 1.1//EN"
 "http://www.w3.org/Graphics/SVG/1.1/DTD/svg11.dtd">
<!-- Generated by graphviz version 2.43.0 (0)
 -->
<!-- Title: Graphical Class Hierarchy Pages: 1 -->
<svg width="367pt" height="66pt"
 viewBox="0.00 0.00 367.00 66.00" xmlns="http://www.w3.org/2000/svg" xmlns:xlink="http://www.w3.org/1999/xlink">
<g id="graph0" class="graph" transform="scale(1 1) rotate(0) translate(4 62)">
<title>Graphical Class Hierarchy</title>
<polygon fill="white" stroke="transparent" points="-4,4 -4,-62 363,-62 363,4 -4,4"/>
<!-- Node0 -->
<g id="node1" class="node">
<title>Node0</title>
<g id="a_node1"><a target="_parent" xlink:href="https://ogrecave.github.io/ogre/api/latest/class_ogre_1_1_compositor_instance_1_1_listener.html" xlink:title=" ">
<polygon fill="white" stroke="black" points="0,-14 0,-44 143,-44 143,-14 0,-14"/>
<text text-anchor="start" x="8" y="-32" font-family="Helvetica,sans-Serif" font-size="10.00">Ogre::CompositorInstance</text>
<text text-anchor="middle" x="71.5" y="-21" font-family="Helvetica,sans-Serif" font-size="10.00">::Listener</text>
</a>
</g>
</g>
<!-- Node1 -->
<g id="node2" class="node">
<title>Node1</title>
<g id="a_node2"><a xlink:href="classCaelum_1_1DepthComposerInstance.html" target="_top" xlink:title="Per&#45;viewport instance of.">
<polygon fill="white" stroke="black" points="179,-38.5 179,-57.5 359,-57.5 359,-38.5 179,-38.5"/>
<text text-anchor="middle" x="269" y="-45.5" font-family="Helvetica,sans-Serif" font-size="10.00">Caelum::DepthComposerInstance</text>
</a>
</g>
</g>
<!-- Node0&#45;&gt;Node1 -->
<g id="edge1" class="edge">
<title>Node0&#45;&gt;Node1</title>
<path fill="none" stroke="#8b1a1a" d="M153.25,-36.85C161.68,-37.67 170.28,-38.5 178.8,-39.33"/>
<polygon fill="#8b1a1a" stroke="#8b1a1a" points="153.37,-33.34 143.08,-35.86 152.69,-40.31 153.37,-33.34"/>
</g>
<!-- Node2 -->
<g id="node3" class="node">
<title>Node2</title>
<g id="a_node3"><a xlink:href="classCaelum_1_1PrecipitationInstance.html" target="_top" xlink:title="Per&#45;viewport instance of precipitation.">
<polygon fill="white" stroke="black" points="187.5,-0.5 187.5,-19.5 350.5,-19.5 350.5,-0.5 187.5,-0.5"/>
<text text-anchor="middle" x="269" y="-7.5" font-family="Helvetica,sans-Serif" font-size="10.00">Caelum::PrecipitationInstance</text>
</a>
</g>
</g>
<!-- Node0&#45;&gt;Node2 -->
<g id="edge2" class="edge">
<title>Node0&#45;&gt;Node2</title>
<path fill="none" stroke="#8b1a1a" d="M153.28,-21.15C164.49,-20.06 176.01,-18.94 187.23,-17.85"/>
<polygon fill="#8b1a1a" stroke="#8b1a1a" points="152.69,-17.69 143.08,-22.14 153.37,-24.66 152.69,-17.69"/>
</g>
</g>
</svg>
