<?xml version="1.0" encoding="UTF-8" standalone="no"?>
<!DOCTYPE svg PUBLIC "-//W3C//DTD SVG 1.1//EN"
 "http://www.w3.org/Graphics/SVG/1.1/DTD/svg11.dtd">
<!-- Generated by graphviz version 2.43.0 (0)
 -->
<!-- Title: Graphical Class Hierarchy Pages: 1 -->
<svg width="607pt" height="94pt"
 viewBox="0.00 0.00 607.00 93.50" xmlns="http://www.w3.org/2000/svg" xmlns:xlink="http://www.w3.org/1999/xlink">
<g id="graph0" class="graph" transform="scale(1 1) rotate(0) translate(4 89.5)">
<title>Graphical Class Hierarchy</title>
<polygon fill="white" stroke="transparent" points="-4,4 -4,-89.5 603,-89.5 603,4 -4,4"/>
<!-- Node0 -->
<g id="node1" class="node">
<title>Node0</title>
<g id="a_node1"><a xlink:href="classCaelum_1_1ValuePropertyDescriptor.html" target="_top" xlink:title="Basic property descriptor interface.">
<polygon fill="white" stroke="black" points="0,-30 0,-49 179,-49 179,-30 0,-30"/>
<text text-anchor="middle" x="89.5" y="-37" font-family="Helvetica,sans-Serif" font-size="10.00">Caelum::ValuePropertyDescriptor</text>
</a>
</g>
</g>
<!-- Node1 -->
<g id="node2" class="node">
<title>Node1</title>
<g id="a_node2"><a xlink:href="classCaelum_1_1TypedValuePropertyDescriptor.html" target="_top" xlink:title=" ">
<polygon fill="white" stroke="black" points="215,-49.5 215,-79.5 373,-79.5 373,-49.5 215,-49.5"/>
<text text-anchor="start" x="223" y="-67.5" font-family="Helvetica,sans-Serif" font-size="10.00">Caelum::TypedValueProperty</text>
<text text-anchor="middle" x="294" y="-56.5" font-family="Helvetica,sans-Serif" font-size="10.00">Descriptor&lt; ParamT &gt;</text>
</a>
</g>
</g>
<!-- Node0&#45;&gt;Node1 -->
<g id="edge1" class="edge">
<title>Node0&#45;&gt;Node1</title>
<path fill="none" stroke="midnightblue" d="M177.85,-50.28C190.12,-51.8 202.66,-53.35 214.74,-54.84"/>
<polygon fill="midnightblue" stroke="midnightblue" points="177.99,-46.77 167.63,-49.02 177.13,-53.72 177.99,-46.77"/>
</g>
<!-- Node3 -->
<g id="node4" class="node">
<title>Node3</title>
<g id="a_node4"><a xlink:href="classCaelum_1_1TypedValuePropertyDescriptor.html" target="_top" xlink:title="Variant of ValuePropertyDescriptor which allows faster typed get/set methods.">
<polygon fill="white" stroke="black" points="215,-0.5 215,-30.5 373,-30.5 373,-0.5 215,-0.5"/>
<text text-anchor="start" x="223" y="-18.5" font-family="Helvetica,sans-Serif" font-size="10.00">Caelum::TypedValueProperty</text>
<text text-anchor="middle" x="294" y="-7.5" font-family="Helvetica,sans-Serif" font-size="10.00">Descriptor&lt; ValueT &gt;</text>
</a>
</g>
</g>
<!-- Node0&#45;&gt;Node3 -->
<g id="edge3" class="edge">
<title>Node0&#45;&gt;Node3</title>
<path fill="none" stroke="midnightblue" d="M181.08,-28.76C192.31,-27.43 203.73,-26.08 214.76,-24.77"/>
<polygon fill="midnightblue" stroke="midnightblue" points="180.34,-25.33 170.82,-29.98 181.17,-32.28 180.34,-25.33"/>
</g>
<!-- Node2 -->
<g id="node3" class="node">
<title>Node2</title>
<g id="a_node3"><a xlink:href="classCaelum_1_1AccesorPropertyDescriptor.html" target="_top" xlink:title="ValuePropertyDescriptor implementation based on function pointers to get/set methods.">
<polygon fill="white" stroke="black" points="409,-44 409,-85 599,-85 599,-44 409,-44"/>
<text text-anchor="start" x="417" y="-73" font-family="Helvetica,sans-Serif" font-size="10.00">Caelum::AccesorPropertyDescriptor</text>
<text text-anchor="start" x="417" y="-62" font-family="Helvetica,sans-Serif" font-size="10.00">&lt; TargetT, ParamT, InParamT,</text>
<text text-anchor="middle" x="504" y="-51" font-family="Helvetica,sans-Serif" font-size="10.00"> OutParamT &gt;</text>
</a>
</g>
</g>
<!-- Node1&#45;&gt;Node2 -->
<g id="edge2" class="edge">
<title>Node1&#45;&gt;Node2</title>
<path fill="none" stroke="midnightblue" d="M383.24,-64.5C391.67,-64.5 400.24,-64.5 408.73,-64.5"/>
<polygon fill="midnightblue" stroke="midnightblue" points="383.04,-61 373.04,-64.5 383.04,-68 383.04,-61"/>
</g>
</g>
</svg>
