<?xml version="1.0" encoding="UTF-8" standalone="no"?>
<!DOCTYPE svg PUBLIC "-//W3C//DTD SVG 1.1//EN"
 "http://www.w3.org/Graphics/SVG/1.1/DTD/svg11.dtd">
<!-- Generated by graphviz version 2.43.0 (0)
 -->
<!-- Title: Graphical Class Hierarchy Pages: 1 -->
<svg width="327pt" height="66pt"
 viewBox="0.00 0.00 327.00 66.00" xmlns="http://www.w3.org/2000/svg" xmlns:xlink="http://www.w3.org/1999/xlink">
<g id="graph0" class="graph" transform="scale(1 1) rotate(0) translate(4 62)">
<title>Graphical Class Hierarchy</title>
<polygon fill="white" stroke="transparent" points="-4,4 -4,-62 323,-62 323,4 -4,4"/>
<!-- Node0 -->
<g id="node1" class="node">
<title>Node0</title>
<g id="a_node1"><a target="_parent" xlink:href="https://ogrecave.github.io/ogre/api/latest/class_ogre_1_1_frame_listener.html" xlink:title=" ">
<polygon fill="white" stroke="black" points="16.5,-38.5 16.5,-57.5 132.5,-57.5 132.5,-38.5 16.5,-38.5"/>
<text text-anchor="middle" x="74.5" y="-45.5" font-family="Helvetica,sans-Serif" font-size="10.00">Ogre::FrameListener</text>
</a>
</g>
</g>
<!-- Node1 -->
<g id="node2" class="node">
<title>Node1</title>
<g id="a_node2"><a xlink:href="classCaelum_1_1CaelumSystem.html" target="_top" xlink:title="This is the &quot;root class&quot; of caelum.">
<polygon fill="white" stroke="black" points="185,-19.5 185,-38.5 319,-38.5 319,-19.5 185,-19.5"/>
<text text-anchor="middle" x="252" y="-26.5" font-family="Helvetica,sans-Serif" font-size="10.00">Caelum::CaelumSystem</text>
</a>
</g>
</g>
<!-- Node0&#45;&gt;Node1 -->
<g id="edge1" class="edge">
<title>Node0&#45;&gt;Node1</title>
<path fill="none" stroke="midnightblue" d="M143.26,-40.66C156.92,-39.19 171.27,-37.63 184.88,-36.16"/>
<polygon fill="midnightblue" stroke="midnightblue" points="142.53,-37.22 132.97,-41.78 143.28,-44.18 142.53,-37.22"/>
</g>
<!-- Node42 -->
<g id="node3" class="node">
<title>Node42</title>
<g id="a_node3"><a target="_parent" xlink:href="https://ogrecave.github.io/ogre/api/latest/class_ogre_1_1_render_target_listener.html" xlink:title=" ">
<polygon fill="white" stroke="black" points="0,-0.5 0,-19.5 149,-19.5 149,-0.5 0,-0.5"/>
<text text-anchor="middle" x="74.5" y="-7.5" font-family="Helvetica,sans-Serif" font-size="10.00">Ogre::RenderTargetListener</text>
</a>
</g>
</g>
<!-- Node42&#45;&gt;Node1 -->
<g id="edge2" class="edge">
<title>Node42&#45;&gt;Node1</title>
<path fill="none" stroke="midnightblue" d="M159.2,-19.06C167.79,-19.99 176.42,-20.93 184.78,-21.83"/>
<polygon fill="midnightblue" stroke="midnightblue" points="159.48,-15.57 149.16,-17.98 158.73,-22.53 159.48,-15.57"/>
</g>
</g>
</svg>
